%TF.GenerationSoftware,KiCad,Pcbnew,7.0.8-7.0.8~ubuntu22.04.1*%
%TF.CreationDate,2023-12-15T13:59:40+01:00*%
%TF.ProjectId,MecanumDevBoard,4d656361-6e75-46d4-9465-76426f617264,1.0*%
%TF.SameCoordinates,Original*%
%TF.FileFunction,Copper,L1,Top*%
%TF.FilePolarity,Positive*%
%FSLAX46Y46*%
G04 Gerber Fmt 4.6, Leading zero omitted, Abs format (unit mm)*
G04 Created by KiCad (PCBNEW 7.0.8-7.0.8~ubuntu22.04.1) date 2023-12-15 13:59:40*
%MOMM*%
%LPD*%
G01*
G04 APERTURE LIST*
G04 Aperture macros list*
%AMRoundRect*
0 Rectangle with rounded corners*
0 $1 Rounding radius*
0 $2 $3 $4 $5 $6 $7 $8 $9 X,Y pos of 4 corners*
0 Add a 4 corners polygon primitive as box body*
4,1,4,$2,$3,$4,$5,$6,$7,$8,$9,$2,$3,0*
0 Add four circle primitives for the rounded corners*
1,1,$1+$1,$2,$3*
1,1,$1+$1,$4,$5*
1,1,$1+$1,$6,$7*
1,1,$1+$1,$8,$9*
0 Add four rect primitives between the rounded corners*
20,1,$1+$1,$2,$3,$4,$5,0*
20,1,$1+$1,$4,$5,$6,$7,0*
20,1,$1+$1,$6,$7,$8,$9,0*
20,1,$1+$1,$8,$9,$2,$3,0*%
G04 Aperture macros list end*
%TA.AperFunction,SMDPad,CuDef*%
%ADD10RoundRect,0.250000X-0.250000X-0.475000X0.250000X-0.475000X0.250000X0.475000X-0.250000X0.475000X0*%
%TD*%
%TA.AperFunction,ComponentPad*%
%ADD11R,1.700000X1.700000*%
%TD*%
%TA.AperFunction,ComponentPad*%
%ADD12O,1.700000X1.700000*%
%TD*%
%TA.AperFunction,SMDPad,CuDef*%
%ADD13R,2.000000X1.500000*%
%TD*%
%TA.AperFunction,SMDPad,CuDef*%
%ADD14R,2.000000X3.800000*%
%TD*%
%TA.AperFunction,SMDPad,CuDef*%
%ADD15R,0.500000X0.250000*%
%TD*%
%TA.AperFunction,SMDPad,CuDef*%
%ADD16R,0.900000X1.600000*%
%TD*%
%TA.AperFunction,SMDPad,CuDef*%
%ADD17RoundRect,0.250000X-0.262500X-0.450000X0.262500X-0.450000X0.262500X0.450000X-0.262500X0.450000X0*%
%TD*%
%TA.AperFunction,SMDPad,CuDef*%
%ADD18R,1.600000X5.700000*%
%TD*%
%TA.AperFunction,ComponentPad*%
%ADD19R,2.200000X2.200000*%
%TD*%
%TA.AperFunction,ComponentPad*%
%ADD20C,2.200000*%
%TD*%
%TA.AperFunction,SMDPad,CuDef*%
%ADD21RoundRect,0.225000X0.250000X-0.225000X0.250000X0.225000X-0.250000X0.225000X-0.250000X-0.225000X0*%
%TD*%
%TA.AperFunction,SMDPad,CuDef*%
%ADD22RoundRect,0.250000X-0.450000X0.262500X-0.450000X-0.262500X0.450000X-0.262500X0.450000X0.262500X0*%
%TD*%
%TA.AperFunction,SMDPad,CuDef*%
%ADD23RoundRect,0.225000X0.225000X0.375000X-0.225000X0.375000X-0.225000X-0.375000X0.225000X-0.375000X0*%
%TD*%
%TA.AperFunction,SMDPad,CuDef*%
%ADD24RoundRect,0.250000X-0.475000X0.250000X-0.475000X-0.250000X0.475000X-0.250000X0.475000X0.250000X0*%
%TD*%
%TA.AperFunction,SMDPad,CuDef*%
%ADD25C,1.000000*%
%TD*%
%TA.AperFunction,SMDPad,CuDef*%
%ADD26RoundRect,0.225000X-0.250000X0.225000X-0.250000X-0.225000X0.250000X-0.225000X0.250000X0.225000X0*%
%TD*%
%TA.AperFunction,SMDPad,CuDef*%
%ADD27R,3.500000X1.700000*%
%TD*%
%TA.AperFunction,SMDPad,CuDef*%
%ADD28R,1.700000X3.500000*%
%TD*%
%TA.AperFunction,ComponentPad*%
%ADD29R,3.500000X3.500000*%
%TD*%
%TA.AperFunction,ComponentPad*%
%ADD30RoundRect,0.750000X-0.750000X-1.000000X0.750000X-1.000000X0.750000X1.000000X-0.750000X1.000000X0*%
%TD*%
%TA.AperFunction,ComponentPad*%
%ADD31RoundRect,0.875000X-0.875000X-0.875000X0.875000X-0.875000X0.875000X0.875000X-0.875000X0.875000X0*%
%TD*%
%TA.AperFunction,SMDPad,CuDef*%
%ADD32RoundRect,0.150000X-0.512500X-0.150000X0.512500X-0.150000X0.512500X0.150000X-0.512500X0.150000X0*%
%TD*%
%TA.AperFunction,SMDPad,CuDef*%
%ADD33RoundRect,0.200000X-0.275000X0.200000X-0.275000X-0.200000X0.275000X-0.200000X0.275000X0.200000X0*%
%TD*%
%TA.AperFunction,SMDPad,CuDef*%
%ADD34RoundRect,0.250000X0.475000X-0.250000X0.475000X0.250000X-0.475000X0.250000X-0.475000X-0.250000X0*%
%TD*%
%TA.AperFunction,ComponentPad*%
%ADD35R,1.600000X1.600000*%
%TD*%
%TA.AperFunction,ComponentPad*%
%ADD36C,1.600000*%
%TD*%
%TA.AperFunction,SMDPad,CuDef*%
%ADD37RoundRect,0.225000X-0.225000X-0.250000X0.225000X-0.250000X0.225000X0.250000X-0.225000X0.250000X0*%
%TD*%
%TA.AperFunction,SMDPad,CuDef*%
%ADD38RoundRect,0.150000X-0.587500X-0.150000X0.587500X-0.150000X0.587500X0.150000X-0.587500X0.150000X0*%
%TD*%
%TA.AperFunction,ComponentPad*%
%ADD39C,1.700000*%
%TD*%
%TA.AperFunction,SMDPad,CuDef*%
%ADD40RoundRect,0.200000X0.275000X-0.200000X0.275000X0.200000X-0.275000X0.200000X-0.275000X-0.200000X0*%
%TD*%
%TA.AperFunction,SMDPad,CuDef*%
%ADD41R,1.250000X0.600000*%
%TD*%
%TA.AperFunction,ViaPad*%
%ADD42C,0.800000*%
%TD*%
%TA.AperFunction,Conductor*%
%ADD43C,0.750000*%
%TD*%
%TA.AperFunction,Conductor*%
%ADD44C,0.500000*%
%TD*%
%TA.AperFunction,Conductor*%
%ADD45C,0.250000*%
%TD*%
%TA.AperFunction,Conductor*%
%ADD46C,1.000000*%
%TD*%
%TA.AperFunction,Conductor*%
%ADD47C,2.000000*%
%TD*%
G04 APERTURE END LIST*
D10*
%TO.P,C3,1*%
%TO.N,+12V*%
X79190000Y-134930000D03*
%TO.P,C3,2*%
%TO.N,GND*%
X81090000Y-134930000D03*
%TD*%
D11*
%TO.P,J4,1,Pin_1*%
%TO.N,/SERVO_2*%
X124840000Y-93080000D03*
D12*
%TO.P,J4,2,Pin_2*%
%TO.N,+5V*%
X124840000Y-95620000D03*
%TO.P,J4,3,Pin_3*%
%TO.N,GND*%
X124840000Y-98160000D03*
%TD*%
D13*
%TO.P,U8,1,GND*%
%TO.N,GND*%
X124090000Y-173130000D03*
%TO.P,U8,2,VO*%
%TO.N,+3.3V*%
X124090000Y-175430000D03*
D14*
X130390000Y-175430000D03*
D13*
%TO.P,U8,3,VI*%
%TO.N,+5V*%
X124090000Y-177730000D03*
%TD*%
D15*
%TO.P,U1,1,VM*%
%TO.N,+12V*%
X80790000Y-137930000D03*
%TO.P,U1,2,OUT1*%
%TO.N,Net-(J2-Pin_1)*%
X80790000Y-138430000D03*
%TO.P,U1,3,OUT2*%
%TO.N,Net-(J2-Pin_2)*%
X80790000Y-138930000D03*
%TO.P,U1,4,GND*%
%TO.N,GND*%
X80790000Y-139430000D03*
%TO.P,U1,5,IN2*%
%TO.N,/FL_IN2*%
X82690000Y-139430000D03*
%TO.P,U1,6,IN1*%
%TO.N,/FL_IN1*%
X82690000Y-138930000D03*
%TO.P,U1,7,~{SLEEP}*%
%TO.N,+3.3V*%
X82690000Y-138430000D03*
%TO.P,U1,8,VCC*%
X82690000Y-137930000D03*
D16*
%TO.P,U1,9,GND*%
%TO.N,GND*%
X81740000Y-138680000D03*
%TD*%
D10*
%TO.P,C9,1*%
%TO.N,+12V*%
X79190000Y-148010000D03*
%TO.P,C9,2*%
%TO.N,GND*%
X81090000Y-148010000D03*
%TD*%
D17*
%TO.P,R5,1*%
%TO.N,/BATT_PROBE*%
X123790000Y-111225000D03*
%TO.P,R5,2*%
%TO.N,+BATT*%
X125615000Y-111225000D03*
%TD*%
D18*
%TO.P,L2,1,1*%
%TO.N,Net-(U7-SW)*%
X105440000Y-181830000D03*
%TO.P,L2,2,2*%
%TO.N,+5V*%
X110140000Y-181830000D03*
%TD*%
D19*
%TO.P,J6,1,Pin_1*%
%TO.N,Net-(J6-Pin_1)*%
X73990000Y-150510000D03*
D20*
%TO.P,J6,2,Pin_2*%
%TO.N,Net-(J6-Pin_2)*%
X73990000Y-153050000D03*
%TD*%
D21*
%TO.P,C4,1*%
%TO.N,+3.3V*%
X84240000Y-144480000D03*
%TO.P,C4,2*%
%TO.N,GND*%
X84240000Y-142930000D03*
%TD*%
D15*
%TO.P,U4,1,VM*%
%TO.N,+12V*%
X80790000Y-157580000D03*
%TO.P,U4,2,OUT1*%
%TO.N,Net-(J7-Pin_1)*%
X80790000Y-158080000D03*
%TO.P,U4,3,OUT2*%
%TO.N,Net-(J7-Pin_2)*%
X80790000Y-158580000D03*
%TO.P,U4,4,GND*%
%TO.N,GND*%
X80790000Y-159080000D03*
%TO.P,U4,5,IN2*%
%TO.N,/BR_IN2*%
X82690000Y-159080000D03*
%TO.P,U4,6,IN1*%
%TO.N,/BR_IN1*%
X82690000Y-158580000D03*
%TO.P,U4,7,~{SLEEP}*%
%TO.N,+3.3V*%
X82690000Y-158080000D03*
%TO.P,U4,8,VCC*%
X82690000Y-157580000D03*
D16*
%TO.P,U4,9,GND*%
%TO.N,GND*%
X81740000Y-158330000D03*
%TD*%
D15*
%TO.P,U2,1,VM*%
%TO.N,+12V*%
X80790000Y-144480000D03*
%TO.P,U2,2,OUT1*%
%TO.N,Net-(J3-Pin_1)*%
X80790000Y-144980000D03*
%TO.P,U2,3,OUT2*%
%TO.N,Net-(J3-Pin_2)*%
X80790000Y-145480000D03*
%TO.P,U2,4,GND*%
%TO.N,GND*%
X80790000Y-145980000D03*
%TO.P,U2,5,IN2*%
%TO.N,/FR_IN2*%
X82690000Y-145980000D03*
%TO.P,U2,6,IN1*%
%TO.N,/FR_IN1*%
X82690000Y-145480000D03*
%TO.P,U2,7,~{SLEEP}*%
%TO.N,+3.3V*%
X82690000Y-144980000D03*
%TO.P,U2,8,VCC*%
X82690000Y-144480000D03*
D16*
%TO.P,U2,9,GND*%
%TO.N,GND*%
X81740000Y-145230000D03*
%TD*%
D18*
%TO.P,L1,1,1*%
%TO.N,Net-(PS1-SW)*%
X105440000Y-166730000D03*
%TO.P,L1,2,2*%
%TO.N,+12V*%
X110140000Y-166730000D03*
%TD*%
D22*
%TO.P,R8,1*%
%TO.N,Net-(PS1-FB)*%
X112640000Y-170605000D03*
%TO.P,R8,2*%
%TO.N,GND*%
X112640000Y-172430000D03*
%TD*%
D10*
%TO.P,C19,1*%
%TO.N,+5V*%
X124090000Y-181630000D03*
%TO.P,C19,2*%
%TO.N,GND*%
X125990000Y-181630000D03*
%TD*%
D23*
%TO.P,D1,1,K*%
%TO.N,+BATT*%
X90440000Y-183780000D03*
%TO.P,D1,2,A*%
%TO.N,Net-(D1-A)*%
X87140000Y-183780000D03*
%TD*%
D24*
%TO.P,C13,1*%
%TO.N,+5V*%
X131240000Y-97130000D03*
%TO.P,C13,2*%
%TO.N,GND*%
X131240000Y-99030000D03*
%TD*%
D25*
%TO.P,TP5,1,1*%
%TO.N,/BATT_PROBE*%
X121390000Y-111225000D03*
%TD*%
D21*
%TO.P,C1,1*%
%TO.N,+3.3V*%
X84240000Y-137930000D03*
%TO.P,C1,2*%
%TO.N,GND*%
X84240000Y-136380000D03*
%TD*%
D22*
%TO.P,R10,1*%
%TO.N,Net-(U7-VFB)*%
X112590000Y-185330000D03*
%TO.P,R10,2*%
%TO.N,GND*%
X112590000Y-187155000D03*
%TD*%
D25*
%TO.P,TP1,1,1*%
%TO.N,+BATT*%
X90940000Y-170080000D03*
%TD*%
D21*
%TO.P,C10,1*%
%TO.N,+3.3V*%
X84190000Y-157580000D03*
%TO.P,C10,2*%
%TO.N,GND*%
X84190000Y-156030000D03*
%TD*%
D19*
%TO.P,J2,1,Pin_1*%
%TO.N,Net-(J2-Pin_1)*%
X73990000Y-137410000D03*
D20*
%TO.P,J2,2,Pin_2*%
%TO.N,Net-(J2-Pin_2)*%
X73990000Y-139950000D03*
%TD*%
D26*
%TO.P,C23,1*%
%TO.N,+BATT*%
X94590000Y-171080000D03*
%TO.P,C23,2*%
%TO.N,GND*%
X94590000Y-172630000D03*
%TD*%
D12*
%TO.P,U6,1,GPIO0*%
%TO.N,/LED*%
X94550000Y-95950000D03*
D27*
X93650000Y-95950000D03*
D12*
%TO.P,U6,2,GPIO1*%
%TO.N,/SERVO_1*%
X94550000Y-98490000D03*
D27*
X93650000Y-98490000D03*
D11*
%TO.P,U6,3,GND*%
%TO.N,GND*%
X94550000Y-101030000D03*
D27*
X93650000Y-101030000D03*
D12*
%TO.P,U6,4,GPIO2*%
%TO.N,/SERVO_2*%
X94550000Y-103570000D03*
D27*
X93650000Y-103570000D03*
D12*
%TO.P,U6,5,GPIO3*%
%TO.N,/NRF_CE*%
X94550000Y-106110000D03*
D27*
X93650000Y-106110000D03*
D12*
%TO.P,U6,6,GPIO4*%
%TO.N,/NRF_MISO*%
X94550000Y-108650000D03*
D27*
X93650000Y-108650000D03*
D12*
%TO.P,U6,7,GPIO5*%
%TO.N,/NRF_CSN*%
X94550000Y-111190000D03*
D27*
X93650000Y-111190000D03*
D11*
%TO.P,U6,8,GND*%
%TO.N,GND*%
X94550000Y-113730000D03*
D27*
X93650000Y-113730000D03*
D12*
%TO.P,U6,9,GPIO6*%
%TO.N,/NRF_SCK*%
X94550000Y-116270000D03*
D27*
X93650000Y-116270000D03*
D12*
%TO.P,U6,10,GPIO7*%
%TO.N,/NRF_MOSI*%
X94550000Y-118810000D03*
D27*
X93650000Y-118810000D03*
D12*
%TO.P,U6,11,GPIO8*%
%TO.N,/FL_IN1*%
X94550000Y-121350000D03*
D27*
X93650000Y-121350000D03*
D12*
%TO.P,U6,12,GPIO9*%
%TO.N,/FL_IN2*%
X94550000Y-123890000D03*
D27*
X93650000Y-123890000D03*
D11*
%TO.P,U6,13,GND*%
%TO.N,GND*%
X94550000Y-126430000D03*
D27*
X93650000Y-126430000D03*
D12*
%TO.P,U6,14,GPIO10*%
%TO.N,/FR_IN1*%
X94550000Y-128970000D03*
D27*
X93650000Y-128970000D03*
D12*
%TO.P,U6,15,GPIO11*%
%TO.N,/FR_IN2*%
X94550000Y-131510000D03*
D27*
X93650000Y-131510000D03*
D12*
%TO.P,U6,16,GPIO12*%
%TO.N,/BL_IN1*%
X94550000Y-134050000D03*
D27*
X93650000Y-134050000D03*
D12*
%TO.P,U6,17,GPIO13*%
%TO.N,/BL_IN2*%
X94550000Y-136590000D03*
D27*
X93650000Y-136590000D03*
D11*
%TO.P,U6,18,GND*%
%TO.N,GND*%
X94550000Y-139130000D03*
D27*
X93650000Y-139130000D03*
D12*
%TO.P,U6,19,GPIO14*%
%TO.N,/BR_IN1*%
X94550000Y-141670000D03*
D27*
X93650000Y-141670000D03*
D12*
%TO.P,U6,20,GPIO15*%
%TO.N,/BR_IN2*%
X94550000Y-144210000D03*
D27*
X93650000Y-144210000D03*
D12*
%TO.P,U6,21,GPIO16*%
%TO.N,/GPIO16*%
X112330000Y-144210000D03*
D27*
X113230000Y-144210000D03*
D12*
%TO.P,U6,22,GPIO17*%
%TO.N,/GPIO17*%
X112330000Y-141670000D03*
D27*
X113230000Y-141670000D03*
D11*
%TO.P,U6,23,GND*%
%TO.N,GND*%
X112330000Y-139130000D03*
D27*
X113230000Y-139130000D03*
D12*
%TO.P,U6,24,GPIO18*%
%TO.N,/GPIO18*%
X112330000Y-136590000D03*
D27*
X113230000Y-136590000D03*
D12*
%TO.P,U6,25,GPIO19*%
%TO.N,/GPIO19*%
X112330000Y-134050000D03*
D27*
X113230000Y-134050000D03*
D12*
%TO.P,U6,26,GPIO20*%
%TO.N,/GPIO20*%
X112330000Y-131510000D03*
D27*
X113230000Y-131510000D03*
D12*
%TO.P,U6,27,GPIO21*%
%TO.N,/GPIO21*%
X112330000Y-128970000D03*
D27*
X113230000Y-128970000D03*
D11*
%TO.P,U6,28,GND*%
%TO.N,GND*%
X112330000Y-126430000D03*
D27*
X113230000Y-126430000D03*
D12*
%TO.P,U6,29,GPIO22*%
%TO.N,/GPIO22*%
X112330000Y-123890000D03*
D27*
X113230000Y-123890000D03*
D12*
%TO.P,U6,30,RUN*%
%TO.N,unconnected-(U6-RUN-Pad30)*%
X112330000Y-121350000D03*
D27*
X113230000Y-121350000D03*
D12*
%TO.P,U6,31,GPIO26_ADC0*%
%TO.N,/GPIO27_ADC0*%
X112330000Y-118810000D03*
D27*
X113230000Y-118810000D03*
D12*
%TO.P,U6,32,GPIO27_ADC1*%
%TO.N,/GPIO27_ADC1*%
X112330000Y-116270000D03*
D27*
X113230000Y-116270000D03*
D11*
%TO.P,U6,33,AGND*%
%TO.N,GND*%
X112330000Y-113730000D03*
D27*
X113230000Y-113730000D03*
D12*
%TO.P,U6,34,GPIO28_ADC2*%
%TO.N,/BATT_PROBE*%
X112330000Y-111190000D03*
D27*
X113230000Y-111190000D03*
D12*
%TO.P,U6,35,ADC_VREF*%
%TO.N,unconnected-(U6-ADC_VREF-Pad35)*%
X112330000Y-108650000D03*
D27*
X113230000Y-108650000D03*
D12*
%TO.P,U6,36,3V3*%
%TO.N,unconnected-(U6-3V3-Pad36)*%
X112330000Y-106110000D03*
D27*
X113230000Y-106110000D03*
D12*
%TO.P,U6,37,3V3_EN*%
%TO.N,unconnected-(U6-3V3_EN-Pad37)*%
X112330000Y-103570000D03*
D27*
X113230000Y-103570000D03*
D11*
%TO.P,U6,38,GND*%
%TO.N,GND*%
X112330000Y-101030000D03*
D27*
X113230000Y-101030000D03*
D12*
%TO.P,U6,39,VSYS*%
%TO.N,+3.3V*%
X112330000Y-98490000D03*
D27*
X113230000Y-98490000D03*
D12*
%TO.P,U6,40,VBUS*%
%TO.N,unconnected-(U6-VBUS-Pad40)*%
X112330000Y-95950000D03*
D27*
X113230000Y-95950000D03*
D12*
%TO.P,U6,41,SWCLK*%
%TO.N,unconnected-(U6-SWCLK-Pad41)*%
X100900000Y-143980000D03*
D28*
X100900000Y-144880000D03*
D11*
%TO.P,U6,42,GND*%
%TO.N,GND*%
X103440000Y-143980000D03*
D28*
X103440000Y-144880000D03*
D12*
%TO.P,U6,43,SWDIO*%
%TO.N,unconnected-(U6-SWDIO-Pad43)*%
X105980000Y-143980000D03*
D28*
X105980000Y-144880000D03*
%TD*%
D21*
%TO.P,C7,1*%
%TO.N,+3.3V*%
X84240000Y-151030000D03*
%TO.P,C7,2*%
%TO.N,GND*%
X84240000Y-149480000D03*
%TD*%
D15*
%TO.P,U3,1,VM*%
%TO.N,+12V*%
X80790000Y-151030000D03*
%TO.P,U3,2,OUT1*%
%TO.N,Net-(J6-Pin_1)*%
X80790000Y-151530000D03*
%TO.P,U3,3,OUT2*%
%TO.N,Net-(J6-Pin_2)*%
X80790000Y-152030000D03*
%TO.P,U3,4,GND*%
%TO.N,GND*%
X80790000Y-152530000D03*
%TO.P,U3,5,IN2*%
%TO.N,/BL_IN2*%
X82690000Y-152530000D03*
%TO.P,U3,6,IN1*%
%TO.N,/BL_IN1*%
X82690000Y-152030000D03*
%TO.P,U3,7,~{SLEEP}*%
%TO.N,+3.3V*%
X82690000Y-151530000D03*
%TO.P,U3,8,VCC*%
X82690000Y-151030000D03*
D16*
%TO.P,U3,9,GND*%
%TO.N,GND*%
X81740000Y-151780000D03*
%TD*%
D22*
%TO.P,R3,1*%
%TO.N,+12V*%
X112640000Y-166730000D03*
%TO.P,R3,2*%
%TO.N,Net-(PS1-FB)*%
X112640000Y-168555000D03*
%TD*%
D11*
%TO.P,J1,1,Pin_1*%
%TO.N,/SERVO_1*%
X128440000Y-93080000D03*
D12*
%TO.P,J1,2,Pin_2*%
%TO.N,+5V*%
X128440000Y-95620000D03*
%TO.P,J1,3,Pin_3*%
%TO.N,GND*%
X128440000Y-98160000D03*
%TD*%
D19*
%TO.P,J3,1,Pin_1*%
%TO.N,Net-(J3-Pin_1)*%
X73990000Y-143960000D03*
D20*
%TO.P,J3,2,Pin_2*%
%TO.N,Net-(J3-Pin_2)*%
X73990000Y-146500000D03*
%TD*%
D26*
%TO.P,C15,1*%
%TO.N,+3.3V*%
X72095000Y-124995000D03*
%TO.P,C15,2*%
%TO.N,GND*%
X72095000Y-126545000D03*
%TD*%
D29*
%TO.P,J8,1*%
%TO.N,Net-(Q4-D)*%
X82740000Y-176680000D03*
D30*
%TO.P,J8,2*%
%TO.N,GND*%
X76740000Y-176680000D03*
D31*
%TO.P,J8,3*%
%TO.N,N/C*%
X79740000Y-181380000D03*
%TD*%
D24*
%TO.P,C17,1*%
%TO.N,+BATT*%
X94440000Y-186130000D03*
%TO.P,C17,2*%
%TO.N,GND*%
X94440000Y-188030000D03*
%TD*%
D26*
%TO.P,C22,1*%
%TO.N,+BATT*%
X96240000Y-171080000D03*
%TO.P,C22,2*%
%TO.N,GND*%
X96240000Y-172630000D03*
%TD*%
D32*
%TO.P,U7,1,GND*%
%TO.N,GND*%
X98602500Y-184230000D03*
%TO.P,U7,2,SW*%
%TO.N,Net-(U7-SW)*%
X98602500Y-185180000D03*
%TO.P,U7,3,VIN*%
%TO.N,+BATT*%
X98602500Y-186130000D03*
%TO.P,U7,4,VFB*%
%TO.N,Net-(U7-VFB)*%
X100877500Y-186130000D03*
%TO.P,U7,5,EN*%
%TO.N,+BATT*%
X100877500Y-185180000D03*
%TO.P,U7,6,VBST*%
%TO.N,Net-(U7-VBST)*%
X100877500Y-184230000D03*
%TD*%
D10*
%TO.P,C6,1*%
%TO.N,+12V*%
X79190000Y-141480000D03*
%TO.P,C6,2*%
%TO.N,GND*%
X81090000Y-141480000D03*
%TD*%
D24*
%TO.P,C24,1*%
%TO.N,+5V*%
X117390000Y-181830000D03*
%TO.P,C24,2*%
%TO.N,GND*%
X117390000Y-183730000D03*
%TD*%
D33*
%TO.P,R9,1*%
%TO.N,+5V*%
X112590000Y-181830000D03*
%TO.P,R9,2*%
%TO.N,Net-(U7-VFB)*%
X112590000Y-183480000D03*
%TD*%
D34*
%TO.P,C20,1*%
%TO.N,+3.3V*%
X121690000Y-175430000D03*
%TO.P,C20,2*%
%TO.N,GND*%
X121690000Y-173530000D03*
%TD*%
D35*
%TO.P,C21,1*%
%TO.N,+12V*%
X119550000Y-164497349D03*
D36*
%TO.P,C21,2*%
%TO.N,GND*%
X119550000Y-169497349D03*
%TD*%
D37*
%TO.P,C2,1*%
%TO.N,+12V*%
X79365000Y-136680000D03*
%TO.P,C2,2*%
%TO.N,GND*%
X80915000Y-136680000D03*
%TD*%
%TO.P,C8,1*%
%TO.N,+12V*%
X79365000Y-149780000D03*
%TO.P,C8,2*%
%TO.N,GND*%
X80915000Y-149780000D03*
%TD*%
D25*
%TO.P,TP3,1,1*%
%TO.N,+5V*%
X136440000Y-156080000D03*
%TD*%
D37*
%TO.P,C5,1*%
%TO.N,+12V*%
X79365000Y-143230000D03*
%TO.P,C5,2*%
%TO.N,GND*%
X80915000Y-143230000D03*
%TD*%
D38*
%TO.P,Q4,1,D*%
%TO.N,Net-(Q4-D)*%
X90190000Y-176680000D03*
%TO.P,Q4,2,G*%
%TO.N,Net-(D1-A)*%
X90190000Y-178580000D03*
%TO.P,Q4,3,S*%
%TO.N,+BATT*%
X92065000Y-177630000D03*
%TD*%
D11*
%TO.P,U5,1,GND*%
%TO.N,GND*%
X75220000Y-127020000D03*
D39*
%TO.P,U5,2,VCC*%
%TO.N,+3.3V*%
X75220000Y-124480000D03*
%TO.P,U5,3,CE*%
%TO.N,/NRF_CE*%
X77760000Y-127020000D03*
%TO.P,U5,4,~{CSN}*%
%TO.N,/NRF_CSN*%
X77760000Y-124480000D03*
%TO.P,U5,5,SCK*%
%TO.N,/NRF_SCK*%
X80300000Y-127020000D03*
%TO.P,U5,6,MOSI*%
%TO.N,/NRF_MOSI*%
X80300000Y-124480000D03*
%TO.P,U5,7,MISO*%
%TO.N,/NRF_MISO*%
X82840000Y-127020000D03*
%TO.P,U5,8,IRQ*%
%TO.N,unconnected-(U5-IRQ-Pad8)*%
X82840000Y-124480000D03*
%TD*%
D25*
%TO.P,TP4,1,1*%
%TO.N,+3.3V*%
X114440000Y-156080000D03*
%TD*%
D26*
%TO.P,C18,1*%
%TO.N,Net-(U7-SW)*%
X103090000Y-181830000D03*
%TO.P,C18,2*%
%TO.N,Net-(U7-VBST)*%
X103090000Y-183380000D03*
%TD*%
D40*
%TO.P,R6,1*%
%TO.N,GND*%
X118690000Y-112875000D03*
%TO.P,R6,2*%
%TO.N,/BATT_PROBE*%
X118690000Y-111225000D03*
%TD*%
D10*
%TO.P,C12,1*%
%TO.N,+12V*%
X79190000Y-154580000D03*
%TO.P,C12,2*%
%TO.N,GND*%
X81090000Y-154580000D03*
%TD*%
D17*
%TO.P,R7,1*%
%TO.N,GND*%
X85277500Y-180130000D03*
%TO.P,R7,2*%
%TO.N,Net-(D1-A)*%
X87102500Y-180130000D03*
%TD*%
D26*
%TO.P,C16,1*%
%TO.N,Net-(PS1-SW)*%
X103140000Y-166730000D03*
%TO.P,C16,2*%
%TO.N,Net-(PS1-CB)*%
X103140000Y-168280000D03*
%TD*%
D37*
%TO.P,C11,1*%
%TO.N,+12V*%
X79365000Y-156330000D03*
%TO.P,C11,2*%
%TO.N,GND*%
X80915000Y-156330000D03*
%TD*%
D25*
%TO.P,TP2,1,1*%
%TO.N,+12V*%
X110440000Y-160080000D03*
%TD*%
D41*
%TO.P,PS1,1,GND*%
%TO.N,GND*%
X98690000Y-169130000D03*
%TO.P,PS1,2,SW*%
%TO.N,Net-(PS1-SW)*%
X98690000Y-170080000D03*
%TO.P,PS1,3,VIN*%
%TO.N,+BATT*%
X98690000Y-171030000D03*
%TO.P,PS1,4,FB*%
%TO.N,Net-(PS1-FB)*%
X101190000Y-171030000D03*
%TO.P,PS1,5,EN*%
%TO.N,+BATT*%
X101190000Y-170080000D03*
%TO.P,PS1,6,CB*%
%TO.N,Net-(PS1-CB)*%
X101190000Y-169130000D03*
%TD*%
D11*
%TO.P,J5,1,Pin_1*%
%TO.N,/LED*%
X121240000Y-93080000D03*
D12*
%TO.P,J5,2,Pin_2*%
%TO.N,+5V*%
X121240000Y-95620000D03*
%TO.P,J5,3,Pin_3*%
%TO.N,GND*%
X121240000Y-98160000D03*
%TD*%
D11*
%TO.P,J9,1,Pin_1*%
%TO.N,/GPIO16*%
X133440000Y-138400000D03*
D12*
%TO.P,J9,2,Pin_2*%
%TO.N,/GPIO17*%
X133440000Y-135860000D03*
%TO.P,J9,3,Pin_3*%
%TO.N,/GPIO18*%
X133440000Y-133320000D03*
%TO.P,J9,4,Pin_4*%
%TO.N,/GPIO19*%
X133440000Y-130780000D03*
%TO.P,J9,5,Pin_5*%
%TO.N,/GPIO20*%
X133440000Y-128240000D03*
%TO.P,J9,6,Pin_6*%
%TO.N,/GPIO21*%
X133440000Y-125700000D03*
%TO.P,J9,7,Pin_7*%
%TO.N,/GPIO22*%
X133440000Y-123160000D03*
%TO.P,J9,8,Pin_8*%
%TO.N,/GPIO27_ADC0*%
X133440000Y-120620000D03*
%TO.P,J9,9,Pin_9*%
%TO.N,/GPIO27_ADC1*%
X133440000Y-118080000D03*
%TD*%
D24*
%TO.P,C14,1*%
%TO.N,+3.3V*%
X70245000Y-124820000D03*
%TO.P,C14,2*%
%TO.N,GND*%
X70245000Y-126720000D03*
%TD*%
D19*
%TO.P,J7,1,Pin_1*%
%TO.N,Net-(J7-Pin_1)*%
X73990000Y-157060000D03*
D20*
%TO.P,J7,2,Pin_2*%
%TO.N,Net-(J7-Pin_2)*%
X73990000Y-159600000D03*
%TD*%
D42*
%TO.N,+3.3V*%
X86440000Y-151030000D03*
X86440000Y-144480000D03*
X86440000Y-137930000D03*
X86440000Y-157580000D03*
X92940000Y-157580000D03*
%TO.N,GND*%
X72240000Y-130980000D03*
X83640000Y-182480000D03*
X97040000Y-168280000D03*
X115240000Y-185480000D03*
X97640000Y-173680000D03*
X84790000Y-141080000D03*
X122640000Y-172080000D03*
X84740000Y-154180000D03*
X127840000Y-181480000D03*
X97240000Y-183280000D03*
X84790000Y-134530000D03*
X84790000Y-147630000D03*
X91640000Y-187280000D03*
%TO.N,+BATT*%
X100740000Y-161680000D03*
X127590000Y-113180000D03*
%TO.N,Net-(J2-Pin_1)*%
X78490000Y-138080000D03*
%TO.N,Net-(J2-Pin_2)*%
X78490000Y-139280000D03*
%TO.N,Net-(J3-Pin_1)*%
X78490000Y-144630000D03*
%TO.N,Net-(J3-Pin_2)*%
X78490000Y-145830000D03*
%TO.N,Net-(J6-Pin_1)*%
X78490000Y-151180000D03*
%TO.N,Net-(J6-Pin_2)*%
X78490000Y-152380000D03*
%TO.N,Net-(J7-Pin_1)*%
X78490000Y-157730000D03*
%TO.N,Net-(J7-Pin_2)*%
X78490000Y-158930000D03*
%TD*%
D43*
%TO.N,+3.3V*%
X114440000Y-156080000D02*
X113440000Y-156080000D01*
D44*
X73440000Y-126340000D02*
X72095000Y-124995000D01*
D45*
X83690000Y-151530000D02*
X84190000Y-151030000D01*
D44*
X76140000Y-131030000D02*
X73440000Y-128330000D01*
X71920000Y-124820000D02*
X72095000Y-124995000D01*
D43*
X114440000Y-156080000D02*
X116440000Y-156080000D01*
D45*
X82690000Y-157580000D02*
X84190000Y-157580000D01*
D43*
X109440000Y-152580000D02*
X109440000Y-100080000D01*
D45*
X82690000Y-144980000D02*
X83690000Y-144980000D01*
D43*
X116440000Y-156080000D02*
X130390000Y-170030000D01*
X111030000Y-98490000D02*
X112330000Y-98490000D01*
D45*
X84190000Y-151030000D02*
X86440000Y-151030000D01*
D44*
X86440000Y-133630000D02*
X83840000Y-131030000D01*
D45*
X83690000Y-138430000D02*
X84190000Y-137930000D01*
D44*
X83840000Y-131030000D02*
X76140000Y-131030000D01*
D43*
X112940000Y-156080000D02*
X109440000Y-152580000D01*
X113440000Y-156080000D02*
X94440000Y-156080000D01*
D45*
X82690000Y-158080000D02*
X83690000Y-158080000D01*
X82690000Y-151530000D02*
X83690000Y-151530000D01*
X83690000Y-158080000D02*
X84190000Y-157580000D01*
X82690000Y-151030000D02*
X84190000Y-151030000D01*
D43*
X94440000Y-156080000D02*
X92940000Y-157580000D01*
D45*
X82690000Y-144480000D02*
X84190000Y-144480000D01*
D44*
X86440000Y-137930000D02*
X86440000Y-133630000D01*
D45*
X83690000Y-144980000D02*
X84190000Y-144480000D01*
X82690000Y-138430000D02*
X83690000Y-138430000D01*
X84190000Y-137930000D02*
X86440000Y-137930000D01*
D43*
X130390000Y-170030000D02*
X130390000Y-175430000D01*
D45*
X82690000Y-137930000D02*
X84190000Y-137930000D01*
D44*
X74705000Y-124995000D02*
X75220000Y-124480000D01*
D43*
X113440000Y-156080000D02*
X112940000Y-156080000D01*
D44*
X70245000Y-124820000D02*
X71920000Y-124820000D01*
X73440000Y-128330000D02*
X73440000Y-126340000D01*
D43*
X109440000Y-100080000D02*
X111030000Y-98490000D01*
D45*
X84190000Y-157580000D02*
X86440000Y-157580000D01*
X84190000Y-144480000D02*
X86440000Y-144480000D01*
D44*
X72095000Y-124995000D02*
X74705000Y-124995000D01*
D45*
%TO.N,GND*%
X81124620Y-159080000D02*
X81740000Y-158464620D01*
D44*
X80965000Y-143230000D02*
X80965000Y-141655000D01*
X112590000Y-187155000D02*
X113565000Y-187155000D01*
X80965000Y-148205000D02*
X81140000Y-148030000D01*
X94590000Y-172630000D02*
X96590000Y-172630000D01*
X81740000Y-157155000D02*
X80915000Y-156330000D01*
X81090000Y-154580000D02*
X84340000Y-154580000D01*
X80965000Y-135105000D02*
X81140000Y-134930000D01*
X112640000Y-172430000D02*
X114640000Y-172430000D01*
X114640000Y-172430000D02*
X117572651Y-169497349D01*
X117390000Y-183730000D02*
X116990000Y-183730000D01*
X94440000Y-188030000D02*
X92390000Y-188030000D01*
X72095000Y-130835000D02*
X72240000Y-130980000D01*
X127840000Y-181480000D02*
X126140000Y-181480000D01*
D45*
X80840000Y-139430000D02*
X81174620Y-139430000D01*
X81174620Y-152530000D02*
X81790000Y-151914620D01*
X81790000Y-145364620D02*
X81790000Y-145230000D01*
D44*
X84240000Y-136380000D02*
X84240000Y-135080000D01*
X81790000Y-151780000D02*
X81790000Y-150605000D01*
X84390000Y-141480000D02*
X84790000Y-141080000D01*
X84340000Y-154580000D02*
X84740000Y-154180000D01*
X97890000Y-169130000D02*
X97040000Y-168280000D01*
D45*
X81740000Y-158464620D02*
X81740000Y-158330000D01*
X81174620Y-139430000D02*
X81790000Y-138814620D01*
D44*
X98602500Y-184230000D02*
X98190000Y-184230000D01*
D45*
X80840000Y-152530000D02*
X81174620Y-152530000D01*
X80790000Y-159080000D02*
X81124620Y-159080000D01*
D44*
X113565000Y-187155000D02*
X115240000Y-185480000D01*
X81740000Y-158330000D02*
X81740000Y-157155000D01*
D45*
X117835000Y-113730000D02*
X118690000Y-112875000D01*
D44*
X81140000Y-134930000D02*
X84390000Y-134930000D01*
D46*
X129310000Y-99030000D02*
X128440000Y-98160000D01*
D44*
X84240000Y-141630000D02*
X84790000Y-141080000D01*
X96590000Y-172630000D02*
X97640000Y-173680000D01*
X98690000Y-169130000D02*
X97890000Y-169130000D01*
X81790000Y-144055000D02*
X80965000Y-143230000D01*
D45*
X80840000Y-145980000D02*
X81174620Y-145980000D01*
D44*
X80965000Y-149780000D02*
X80965000Y-148205000D01*
X85277500Y-180130000D02*
X85277500Y-180842500D01*
X81790000Y-137505000D02*
X80965000Y-136680000D01*
X84240000Y-142930000D02*
X84240000Y-141630000D01*
X80915000Y-154755000D02*
X81090000Y-154580000D01*
X80965000Y-136680000D02*
X80965000Y-135105000D01*
X80915000Y-156330000D02*
X80915000Y-154755000D01*
X81140000Y-148030000D02*
X84390000Y-148030000D01*
X124090000Y-173130000D02*
X123690000Y-173130000D01*
X92390000Y-188030000D02*
X91640000Y-187280000D01*
X84240000Y-148180000D02*
X84790000Y-147630000D01*
D45*
X81174620Y-145980000D02*
X81790000Y-145364620D01*
D44*
X126140000Y-181480000D02*
X125990000Y-181630000D01*
X84190000Y-154730000D02*
X84740000Y-154180000D01*
X116990000Y-183730000D02*
X115240000Y-185480000D01*
X72095000Y-126545000D02*
X72095000Y-130835000D01*
X81140000Y-141480000D02*
X84390000Y-141480000D01*
X70245000Y-126720000D02*
X71920000Y-126720000D01*
X80965000Y-141655000D02*
X81140000Y-141480000D01*
X71920000Y-126720000D02*
X72095000Y-126545000D01*
X81790000Y-145230000D02*
X81790000Y-144055000D01*
X121690000Y-173530000D02*
X121690000Y-173030000D01*
X98190000Y-184230000D02*
X97240000Y-183280000D01*
D46*
X131240000Y-99030000D02*
X129310000Y-99030000D01*
D45*
X81790000Y-151914620D02*
X81790000Y-151780000D01*
D44*
X81790000Y-138680000D02*
X81790000Y-137505000D01*
X81790000Y-150605000D02*
X80965000Y-149780000D01*
X121690000Y-173030000D02*
X122640000Y-172080000D01*
X84390000Y-148030000D02*
X84790000Y-147630000D01*
X84240000Y-149480000D02*
X84240000Y-148180000D01*
X84190000Y-156030000D02*
X84190000Y-154730000D01*
X84390000Y-134930000D02*
X84790000Y-134530000D01*
D45*
X81790000Y-138814620D02*
X81790000Y-138680000D01*
X112330000Y-113730000D02*
X117835000Y-113730000D01*
D44*
X117572651Y-169497349D02*
X119550000Y-169497349D01*
X84240000Y-135080000D02*
X84790000Y-134530000D01*
X85277500Y-180842500D02*
X83640000Y-182480000D01*
X123690000Y-173130000D02*
X122640000Y-172080000D01*
D43*
%TO.N,+12V*%
X77440000Y-160080000D02*
X76440000Y-159080000D01*
D45*
X80790000Y-157580000D02*
X80615000Y-157580000D01*
X79190000Y-154580000D02*
X79190000Y-156155000D01*
D43*
X79190000Y-154580000D02*
X76440000Y-157330000D01*
D45*
X79190000Y-141480000D02*
X79190000Y-143055000D01*
D43*
X76440000Y-137680000D02*
X76440000Y-144230000D01*
X117317349Y-166730000D02*
X119550000Y-164497349D01*
X110440000Y-160080000D02*
X77440000Y-160080000D01*
D45*
X80790000Y-144480000D02*
X80615000Y-144480000D01*
D43*
X112640000Y-166730000D02*
X117317349Y-166730000D01*
D45*
X80615000Y-137930000D02*
X79365000Y-136680000D01*
X79190000Y-156155000D02*
X79365000Y-156330000D01*
X79190000Y-136505000D02*
X79365000Y-136680000D01*
X80615000Y-157580000D02*
X79365000Y-156330000D01*
X80615000Y-144480000D02*
X79365000Y-143230000D01*
D43*
X110440000Y-160080000D02*
X112440000Y-160080000D01*
D45*
X79190000Y-148010000D02*
X79190000Y-149605000D01*
X80790000Y-151030000D02*
X80615000Y-151030000D01*
X79190000Y-149605000D02*
X79365000Y-149780000D01*
X79190000Y-143055000D02*
X79365000Y-143230000D01*
X80790000Y-137930000D02*
X80615000Y-137930000D01*
D43*
X112640000Y-166730000D02*
X110140000Y-166730000D01*
D45*
X79190000Y-134930000D02*
X79190000Y-136505000D01*
D43*
X112440000Y-160080000D02*
X116857349Y-164497349D01*
X76440000Y-159080000D02*
X76440000Y-144230000D01*
X116857349Y-164497349D02*
X119550000Y-164497349D01*
X79190000Y-134930000D02*
X76440000Y-137680000D01*
X79190000Y-148010000D02*
X76440000Y-150760000D01*
D45*
X80615000Y-151030000D02*
X79365000Y-149780000D01*
D43*
X79190000Y-141480000D02*
X76440000Y-144230000D01*
D46*
%TO.N,+5V*%
X136440000Y-156080000D02*
X136440000Y-100130000D01*
D43*
X124090000Y-181630000D02*
X123890000Y-181830000D01*
D46*
X119440000Y-181830000D02*
X123440000Y-185830000D01*
X112590000Y-181830000D02*
X117390000Y-181830000D01*
X112590000Y-181830000D02*
X110140000Y-181830000D01*
X117390000Y-181830000D02*
X119440000Y-181830000D01*
X128440000Y-95620000D02*
X121240000Y-95620000D01*
D43*
X123890000Y-181830000D02*
X117390000Y-181830000D01*
X124090000Y-177730000D02*
X124090000Y-181630000D01*
D46*
X128440000Y-95620000D02*
X129730000Y-95620000D01*
X136440000Y-178280000D02*
X136440000Y-156080000D01*
X133440000Y-97130000D02*
X131240000Y-97130000D01*
X123440000Y-185830000D02*
X128890000Y-185830000D01*
X136440000Y-100130000D02*
X133440000Y-97130000D01*
X129730000Y-95620000D02*
X131240000Y-97130000D01*
X128890000Y-185830000D02*
X136440000Y-178280000D01*
D43*
%TO.N,Net-(PS1-SW)*%
X98690000Y-170080000D02*
X97673274Y-170080000D01*
X97673274Y-170080000D02*
X97343274Y-169750000D01*
X95140000Y-167580000D02*
X95990000Y-166730000D01*
X95140000Y-169030000D02*
X95140000Y-167580000D01*
X95860000Y-169750000D02*
X95140000Y-169030000D01*
X97343274Y-169750000D02*
X95860000Y-169750000D01*
X95990000Y-166730000D02*
X103140000Y-166730000D01*
X103140000Y-166730000D02*
X105440000Y-166730000D01*
D44*
%TO.N,Net-(PS1-CB)*%
X101190000Y-169130000D02*
X102290000Y-169130000D01*
X102290000Y-169130000D02*
X103140000Y-168280000D01*
D46*
%TO.N,+BATT*%
X94440000Y-186130000D02*
X92090000Y-183780000D01*
D44*
X101190000Y-170080000D02*
X100440000Y-170080000D01*
X90940000Y-168130000D02*
X97390000Y-161680000D01*
X127590000Y-112380000D02*
X126435000Y-111225000D01*
D46*
X92090000Y-177655000D02*
X92065000Y-177630000D01*
D44*
X100215000Y-185180000D02*
X99265000Y-186130000D01*
D46*
X94490000Y-186180000D02*
X98602500Y-186180000D01*
D43*
X92065000Y-173130000D02*
X94115000Y-171080000D01*
D44*
X99490000Y-171030000D02*
X98690000Y-171030000D01*
X90940000Y-170080000D02*
X90940000Y-168130000D01*
X100440000Y-170080000D02*
X99490000Y-171030000D01*
D43*
X96240000Y-171080000D02*
X98640000Y-171080000D01*
D44*
X127590000Y-113180000D02*
X127590000Y-112380000D01*
D46*
X92090000Y-183780000D02*
X90440000Y-183780000D01*
D44*
X100877500Y-185180000D02*
X100215000Y-185180000D01*
D46*
X92090000Y-183780000D02*
X92090000Y-177655000D01*
D43*
X94590000Y-171080000D02*
X96240000Y-171080000D01*
D44*
X99265000Y-186130000D02*
X98602500Y-186130000D01*
D43*
X92065000Y-171205000D02*
X90940000Y-170080000D01*
D46*
X94440000Y-186130000D02*
X94490000Y-186180000D01*
D43*
X92065000Y-177630000D02*
X92065000Y-173130000D01*
X98640000Y-171080000D02*
X98690000Y-171030000D01*
X94115000Y-171080000D02*
X94590000Y-171080000D01*
D44*
X126435000Y-111225000D02*
X125615000Y-111225000D01*
X97390000Y-161680000D02*
X100740000Y-161680000D01*
D43*
X92065000Y-173130000D02*
X92065000Y-171205000D01*
D44*
%TO.N,Net-(U7-SW)*%
X98602500Y-185180000D02*
X99190000Y-185180000D01*
X99740000Y-184630000D02*
X99740000Y-182530000D01*
X98602500Y-185180000D02*
X96790000Y-185180000D01*
X96790000Y-185180000D02*
X95790000Y-184180000D01*
D46*
X103090000Y-181830000D02*
X105440000Y-181830000D01*
X103090000Y-181830000D02*
X100440000Y-181830000D01*
D44*
X99190000Y-185180000D02*
X99740000Y-184630000D01*
X95790000Y-182430000D02*
X96640000Y-181580000D01*
X96640000Y-181580000D02*
X100190000Y-181580000D01*
X99740000Y-182530000D02*
X100440000Y-181830000D01*
X100190000Y-181580000D02*
X100440000Y-181830000D01*
X95790000Y-184180000D02*
X95790000Y-182430000D01*
%TO.N,Net-(U7-VBST)*%
X100877500Y-184230000D02*
X102240000Y-184230000D01*
X102240000Y-184230000D02*
X103090000Y-183380000D01*
D45*
%TO.N,Net-(J2-Pin_1)*%
X80790000Y-138430000D02*
X78840000Y-138430000D01*
X78840000Y-138430000D02*
X78490000Y-138080000D01*
%TO.N,Net-(J2-Pin_2)*%
X80790000Y-138930000D02*
X78840000Y-138930000D01*
X78840000Y-138930000D02*
X78490000Y-139280000D01*
%TO.N,Net-(J3-Pin_1)*%
X78840000Y-144980000D02*
X78490000Y-144630000D01*
X80790000Y-144980000D02*
X78840000Y-144980000D01*
%TO.N,Net-(J3-Pin_2)*%
X78840000Y-145480000D02*
X78490000Y-145830000D01*
X80790000Y-145480000D02*
X78840000Y-145480000D01*
%TO.N,Net-(J6-Pin_1)*%
X80790000Y-151530000D02*
X78840000Y-151530000D01*
X78840000Y-151530000D02*
X78490000Y-151180000D01*
%TO.N,Net-(J6-Pin_2)*%
X78840000Y-152030000D02*
X78490000Y-152380000D01*
X80790000Y-152030000D02*
X78840000Y-152030000D01*
%TO.N,Net-(J7-Pin_1)*%
X78840000Y-158080000D02*
X80790000Y-158080000D01*
X78490000Y-157730000D02*
X78840000Y-158080000D01*
%TO.N,Net-(J7-Pin_2)*%
X78840000Y-158580000D02*
X80790000Y-158580000D01*
X78490000Y-158930000D02*
X78840000Y-158580000D01*
D47*
%TO.N,Net-(Q4-D)*%
X82740000Y-176680000D02*
X90190000Y-176680000D01*
D44*
%TO.N,Net-(PS1-FB)*%
X101190000Y-171030000D02*
X112215000Y-171030000D01*
X112215000Y-171030000D02*
X112640000Y-170605000D01*
X112640000Y-170605000D02*
X112640000Y-168555000D01*
%TO.N,Net-(D1-A)*%
X88652500Y-178580000D02*
X87102500Y-180130000D01*
X87102500Y-180130000D02*
X87102500Y-183742500D01*
X90190000Y-178580000D02*
X88652500Y-178580000D01*
X87102500Y-183742500D02*
X87140000Y-183780000D01*
D45*
%TO.N,/BATT_PROBE*%
X123790000Y-111225000D02*
X112365000Y-111225000D01*
X112365000Y-111225000D02*
X112330000Y-111190000D01*
D44*
%TO.N,Net-(U7-VFB)*%
X112590000Y-183480000D02*
X112590000Y-185330000D01*
X111790000Y-186130000D02*
X112590000Y-185330000D01*
X100877500Y-186130000D02*
X111790000Y-186130000D01*
D45*
%TO.N,/FL_IN2*%
X88040000Y-138366396D02*
X86976396Y-139430000D01*
X88040000Y-127076776D02*
X88040000Y-138366396D01*
X86976396Y-139430000D02*
X82690000Y-139430000D01*
X94550000Y-123890000D02*
X91226776Y-123890000D01*
X91226776Y-123890000D02*
X88040000Y-127076776D01*
%TO.N,/FL_IN1*%
X94550000Y-121350000D02*
X93130380Y-121350000D01*
X93130380Y-121350000D02*
X87590000Y-126890380D01*
X86840000Y-138930000D02*
X82690000Y-138930000D01*
X87590000Y-138180000D02*
X86840000Y-138930000D01*
X87590000Y-126890380D02*
X87590000Y-138180000D01*
%TO.N,/FR_IN2*%
X94550000Y-131510000D02*
X93130380Y-131510000D01*
X89090000Y-143491701D02*
X86601701Y-145980000D01*
X86601701Y-145980000D02*
X82690000Y-145980000D01*
X89090000Y-135550380D02*
X89090000Y-143491701D01*
X93130380Y-131510000D02*
X89090000Y-135550380D01*
%TO.N,/FR_IN1*%
X88640000Y-130480000D02*
X88640000Y-143305305D01*
X94550000Y-128970000D02*
X90150000Y-128970000D01*
X90150000Y-128970000D02*
X88640000Y-130480000D01*
X86465305Y-145480000D02*
X82690000Y-145480000D01*
X88640000Y-143305305D02*
X86465305Y-145480000D01*
%TO.N,/BL_IN2*%
X92130000Y-136590000D02*
X90290000Y-138430000D01*
X94550000Y-136590000D02*
X92130000Y-136590000D01*
X86601701Y-152530000D02*
X82690000Y-152530000D01*
X90290000Y-138430000D02*
X90290000Y-148841701D01*
X90290000Y-148841701D02*
X86601701Y-152530000D01*
%TO.N,/BL_IN1*%
X89840000Y-137340380D02*
X89840000Y-148655305D01*
X86465305Y-152030000D02*
X82690000Y-152030000D01*
X94550000Y-134050000D02*
X93130380Y-134050000D01*
X89840000Y-148655305D02*
X86465305Y-152030000D01*
X93130380Y-134050000D02*
X89840000Y-137340380D01*
%TO.N,/BR_IN2*%
X94550000Y-144210000D02*
X92710000Y-144210000D01*
X92710000Y-144210000D02*
X91490000Y-145430000D01*
X91490000Y-145430000D02*
X91490000Y-155066396D01*
X91490000Y-155066396D02*
X87476396Y-159080000D01*
X87476396Y-159080000D02*
X82690000Y-159080000D01*
%TO.N,/BR_IN1*%
X87340000Y-158580000D02*
X82690000Y-158580000D01*
X93130380Y-141670000D02*
X91040000Y-143760380D01*
X91040000Y-154880000D02*
X87340000Y-158580000D01*
X91040000Y-143760380D02*
X91040000Y-154880000D01*
X94550000Y-141670000D02*
X93130380Y-141670000D01*
%TO.N,/NRF_CE*%
X89590000Y-121020812D02*
X88860812Y-121750000D01*
X89590000Y-109650380D02*
X89590000Y-121020812D01*
X94550000Y-106110000D02*
X93130380Y-106110000D01*
X76490000Y-125750000D02*
X77760000Y-127020000D01*
X88860812Y-121750000D02*
X78400000Y-121750000D01*
X76490000Y-123660000D02*
X76490000Y-125750000D01*
X93130380Y-106110000D02*
X89590000Y-109650380D01*
X78400000Y-121750000D02*
X76490000Y-123660000D01*
%TO.N,/NRF_CSN*%
X90040000Y-121207208D02*
X89047208Y-122200000D01*
X93130380Y-111190000D02*
X90040000Y-114280380D01*
X79450000Y-122200000D02*
X77760000Y-123890000D01*
X89047208Y-122200000D02*
X79450000Y-122200000D01*
X77760000Y-123890000D02*
X77760000Y-124480000D01*
X90040000Y-114280380D02*
X90040000Y-121207208D01*
X94550000Y-111190000D02*
X93130380Y-111190000D01*
%TO.N,/NRF_SCK*%
X79900000Y-122650000D02*
X79040000Y-123510000D01*
X79040000Y-123510000D02*
X79040000Y-125760000D01*
X79040000Y-125760000D02*
X80300000Y-127020000D01*
X89233604Y-122650000D02*
X79900000Y-122650000D01*
X94550000Y-116270000D02*
X93130380Y-116270000D01*
X90490000Y-118910380D02*
X90490000Y-121393604D01*
X93130380Y-116270000D02*
X90490000Y-118910380D01*
X90490000Y-121393604D02*
X89233604Y-122650000D01*
%TO.N,/NRF_MOSI*%
X94550000Y-118810000D02*
X91810000Y-118810000D01*
X81680000Y-123100000D02*
X80300000Y-124480000D01*
X90940000Y-121580000D02*
X89420000Y-123100000D01*
X91810000Y-118810000D02*
X90940000Y-119680000D01*
X89420000Y-123100000D02*
X81680000Y-123100000D01*
X90940000Y-119680000D02*
X90940000Y-121580000D01*
%TO.N,/SERVO_1*%
X96230000Y-98490000D02*
X97090000Y-97630000D01*
X101240000Y-91030000D02*
X126390000Y-91030000D01*
X94550000Y-98490000D02*
X96230000Y-98490000D01*
X97090000Y-97630000D02*
X97090000Y-95180000D01*
X126390000Y-91030000D02*
X128440000Y-93080000D01*
X97090000Y-95180000D02*
X101240000Y-91030000D01*
%TO.N,/SERVO_2*%
X123240000Y-91480000D02*
X124840000Y-93080000D01*
X98590000Y-95580000D02*
X102690000Y-91480000D01*
X98590000Y-99530000D02*
X98590000Y-95580000D01*
X102690000Y-91480000D02*
X123240000Y-91480000D01*
X94550000Y-103570000D02*
X98590000Y-99530000D01*
D44*
%TO.N,/GPIO16*%
X127630000Y-144210000D02*
X112330000Y-144210000D01*
X133440000Y-138400000D02*
X127630000Y-144210000D01*
%TO.N,/GPIO17*%
X127630000Y-141670000D02*
X112330000Y-141670000D01*
X133440000Y-135860000D02*
X127630000Y-141670000D01*
%TO.N,/GPIO18*%
X133440000Y-133320000D02*
X130170000Y-136590000D01*
X130170000Y-136590000D02*
X112330000Y-136590000D01*
%TO.N,/GPIO19*%
X130170000Y-134050000D02*
X112330000Y-134050000D01*
X133440000Y-130780000D02*
X130170000Y-134050000D01*
%TO.N,/GPIO20*%
X133440000Y-128240000D02*
X130170000Y-131510000D01*
X130170000Y-131510000D02*
X112330000Y-131510000D01*
%TO.N,/GPIO21*%
X130170000Y-128970000D02*
X112330000Y-128970000D01*
X133440000Y-125700000D02*
X130170000Y-128970000D01*
%TO.N,/GPIO22*%
X133440000Y-123160000D02*
X132710000Y-123890000D01*
X132710000Y-123890000D02*
X112330000Y-123890000D01*
%TO.N,/GPIO27_ADC0*%
X133440000Y-120620000D02*
X131630000Y-118810000D01*
X131630000Y-118810000D02*
X112330000Y-118810000D01*
%TO.N,/GPIO27_ADC1*%
X131630000Y-116270000D02*
X112330000Y-116270000D01*
X133440000Y-118080000D02*
X131630000Y-116270000D01*
%TD*%
%TA.AperFunction,Conductor*%
%TO.N,+3.3V*%
G36*
X132033039Y-172949685D02*
G01*
X132078794Y-173002489D01*
X132090000Y-173054000D01*
X132090000Y-177806000D01*
X132070315Y-177873039D01*
X132017511Y-177918794D01*
X131966000Y-177930000D01*
X127641362Y-177930000D01*
X127574323Y-177910315D01*
X127553681Y-177893681D01*
X126240000Y-176580000D01*
X125432107Y-176580000D01*
X125365068Y-176560315D01*
X125357796Y-176555267D01*
X125332331Y-176536204D01*
X125332328Y-176536202D01*
X125197482Y-176485908D01*
X125197483Y-176485908D01*
X125137883Y-176479501D01*
X125137881Y-176479500D01*
X125137873Y-176479500D01*
X125137864Y-176479500D01*
X123042129Y-176479500D01*
X123042123Y-176479501D01*
X122982516Y-176485908D01*
X122847671Y-176536202D01*
X122847668Y-176536204D01*
X122822204Y-176555267D01*
X122756739Y-176579684D01*
X122747893Y-176580000D01*
X121064000Y-176580000D01*
X120996961Y-176560315D01*
X120951206Y-176507511D01*
X120940000Y-176456000D01*
X120940000Y-174644828D01*
X120959685Y-174577789D01*
X121012489Y-174532034D01*
X121076602Y-174521470D01*
X121164991Y-174530500D01*
X122215008Y-174530499D01*
X122215016Y-174530498D01*
X122215019Y-174530498D01*
X122271302Y-174524748D01*
X122317797Y-174519999D01*
X122484334Y-174464814D01*
X122633656Y-174372712D01*
X122677274Y-174329093D01*
X122738595Y-174295607D01*
X122808287Y-174300590D01*
X122839268Y-174317507D01*
X122847668Y-174323795D01*
X122847671Y-174323797D01*
X122982517Y-174374091D01*
X122982516Y-174374091D01*
X122989444Y-174374835D01*
X123042127Y-174380500D01*
X125137872Y-174380499D01*
X125197483Y-174374091D01*
X125332331Y-174323796D01*
X125357796Y-174304733D01*
X125423261Y-174280316D01*
X125432107Y-174280000D01*
X126240000Y-174280000D01*
X127553681Y-172966319D01*
X127615004Y-172932834D01*
X127641362Y-172930000D01*
X131966000Y-172930000D01*
X132033039Y-172949685D01*
G37*
%TD.AperFunction*%
%TD*%
M02*
