M48
; DRILL file {KiCad 7.0.8-7.0.8~ubuntu22.04.1} date Tue 19 Dec 2023 03:44:51 AM CET
; FORMAT={-:-/ absolute / inch / decimal}
; #@! TF.CreationDate,2023-12-19T03:44:51+01:00
; #@! TF.GenerationSoftware,Kicad,Pcbnew,7.0.8-7.0.8~ubuntu22.04.1
; #@! TF.FileFunction,Plated,1,2,PTH
FMAT,2
INCH
; #@! TA.AperFunction,Plated,PTH,ViaDrill
T1C0.0157
; #@! TA.AperFunction,Plated,PTH,ComponentDrill
T2C0.0315
; #@! TA.AperFunction,Plated,PTH,ComponentDrill
T3C0.0394
; #@! TA.AperFunction,Plated,PTH,ComponentDrill
T4C0.0402
; #@! TA.AperFunction,Plated,PTH,ComponentDrill
T5C0.0433
%
G90
G05
T1
X2.8441Y-5.1567
X3.0157Y-5.2441
X3.0902Y-5.4362
X3.0902Y-5.4835
X3.0902Y-5.6941
X3.0902Y-5.7413
X3.0902Y-5.952
X3.0902Y-5.9992
X3.0902Y-6.2098
X3.0902Y-6.2571
X3.2559Y-5.2323
X3.2929Y-7.1843
X3.3307Y-6.3976
X3.3362Y-6.0701
X3.3382Y-5.2965
X3.3382Y-5.5543
X3.3382Y-5.8122
X3.3937Y-5.1181
X3.4031Y-5.4303
X3.4031Y-5.6882
X3.4031Y-5.9461
X3.4031Y-6.2039
X3.4528Y-5.6063
X3.4882Y-5.8189
X3.5118Y-6.0591
X3.5276Y-6.8071
X3.6079Y-7.3732
X3.6575Y-6.3976
X3.6591Y-6.2039
X3.7205Y-5.9055
X3.7992Y-7.0512
X3.8205Y-6.6252
X3.8283Y-7.2157
X3.8583Y-4.5118
X3.8661Y-4.9409
X3.8661Y-6.8622
X3.874Y-7.2008
X3.8819Y-5.3465
X3.8819Y-6.5906
X3.9661Y-6.3654
X3.9685Y-6.5906
X4.0118Y-6.2165
X4.0748Y-5.9055
X4.1142Y-7.4055
X4.1811Y-4.5039
X4.189Y-4.9685
X4.2205Y-5.3386
X4.2283Y-6.9055
X4.2441Y-7.2441
X4.537Y-7.3024
X4.6063Y-6.3031
X4.6142Y-6.9921
X4.7992Y-6.7598
X4.815Y-4.1181
X4.8386Y-5.8976
X4.9567Y-6.6417
X5.0232Y-4.4559
X5.0331Y-7.1449
X5.2126Y-4.189
X5.2165Y-6.5276
X5.2244Y-6.0394
X5.2283Y-5.6693
X5.2441Y-4.4843
T2
X4.7067Y-6.4763
X4.7067Y-6.6731
T3
X2.9614Y-4.9008
X2.9614Y-5.0008
X3.0614Y-4.9008
X3.0614Y-5.0008
X3.1614Y-4.9008
X3.1614Y-5.0008
X3.2614Y-4.9008
X3.2614Y-5.0008
X4.7732Y-3.6646
X4.7732Y-3.7646
X4.7732Y-3.8646
X4.915Y-3.6646
X4.915Y-3.7646
X4.915Y-3.8646
X5.0567Y-3.6646
X5.0567Y-3.7646
X5.0567Y-3.8646
X5.2535Y-4.6488
X5.2535Y-4.7488
X5.2535Y-4.8488
X5.2535Y-4.9488
X5.2535Y-5.0488
X5.2535Y-5.1488
X5.2535Y-5.2488
X5.2535Y-5.3488
X5.2535Y-5.4488
T4
X3.7224Y-3.7776
X3.7224Y-3.8776
X3.7224Y-3.9776
X3.7224Y-4.0776
X3.7224Y-4.1776
X3.7224Y-4.2776
X3.7224Y-4.3776
X3.7224Y-4.4776
X3.7224Y-4.5776
X3.7224Y-4.6776
X3.7224Y-4.7776
X3.7224Y-4.8776
X3.7224Y-4.9776
X3.7224Y-5.0776
X3.7224Y-5.1776
X3.7224Y-5.2776
X3.7224Y-5.3776
X3.7224Y-5.4776
X3.7224Y-5.5776
X3.7224Y-5.6776
X3.9724Y-5.6685
X4.0724Y-5.6685
X4.1724Y-5.6685
X4.4224Y-3.7776
X4.4224Y-3.8776
X4.4224Y-3.9776
X4.4224Y-4.0776
X4.4224Y-4.1776
X4.4224Y-4.2776
X4.4224Y-4.3776
X4.4224Y-4.4776
X4.4224Y-4.5776
X4.4224Y-4.6776
X4.4224Y-4.7776
X4.4224Y-4.8776
X4.4224Y-4.9776
X4.4224Y-5.0776
X4.4224Y-5.1776
X4.4224Y-5.2776
X4.4224Y-5.3776
X4.4224Y-5.4776
X4.4224Y-5.5776
X4.4224Y-5.6776
T5
X2.913Y-5.4098
X2.913Y-5.5098
X2.913Y-5.6677
X2.913Y-5.7677
X2.913Y-5.9256
X2.913Y-6.0256
X2.913Y-6.1835
X2.913Y-6.2835
T3
G00X3.0213Y-6.9165
M15
G01X3.0213Y-6.9953
M16
G05
G00X3.1Y-7.1409
M15
G01X3.1787Y-7.1409
M16
G05
G00X3.2575Y-6.9165
M15
G01X3.2575Y-6.9953
M16
G05
T0
M30
